<svg width="153" height="50" viewBox="0 0 153 50" fill="none" xmlns="http://www.w3.org/2000/svg">
<path d="M22.6387 30.9114L15.036 26.9094V44.226L7.26612 49.0254L0 44.0521L7.60267 39.768V22.1099L0 18.1694V9.25342L22.6387 21.9954V30.9114Z" fill="url(#paint0_linear_21_128)"/>
<path d="M37.5094 13.3676V40.1092L22.6386 48.3423V39.2567L29.5681 35.6512V17.6581L7.76978 4.96912L15.0359 0L37.5094 13.3676Z" fill="url(#paint1_linear_21_128)"/>
<path d="M58.3479 17.0922C56.3286 17.3255 56.0693 17.5016 56.0693 19.9596V29.62C56.0693 33.0133 55.7516 35.8553 53.0111 38.0503C51.948 38.8825 50.7311 39.4898 49.4324 39.8361L48.9705 38.7226C50.5863 37.9909 51.4246 36.9666 51.7402 35.1172C52.0015 33.4778 52.0579 31.6624 52.0579 29.497V19.9532C52.0579 17.4952 51.7695 17.2895 49.5495 17.0859V16H58.3499L58.3479 17.0922Z" fill="#F9D168"/>
<path d="M69.2533 35.3865C68.6026 35.4114 67.9656 35.1925 67.4639 34.7714C67.1365 34.4721 66.88 34.1016 66.7135 33.6877C65.6181 34.4194 64.205 35.3843 63.6553 35.3843C61.174 35.3865 59.74 33.4247 59.74 31.6093C59.74 30.0589 60.4319 29.3569 61.9621 28.7419C63.6636 28.1056 65.9338 27.3952 66.6068 26.8098V25.5225C66.6068 23.9997 66.0592 23.1514 64.8175 23.1514C64.5933 23.1495 64.3718 23.2016 64.1712 23.3033C63.9706 23.4051 63.7967 23.5536 63.6636 23.7367C63.3166 24.2054 63.2016 24.7971 62.9717 25.6688C62.7627 26.4577 62.307 26.6635 61.73 26.6635C60.9817 26.6635 60.0285 25.9615 60.0285 25.1407C60.0285 24.6147 60.3755 24.233 61.0381 23.7664C62.3362 22.8863 64.0378 22.0379 65.6536 21.688C66.8075 21.688 67.79 21.951 68.6261 22.5363C69.8657 23.4143 70.2127 24.6444 70.2127 26.1417V31.2063C70.2127 32.6124 70.6747 32.9623 71.1367 32.9623C71.448 32.9507 71.7531 32.8711 72.0314 32.7291L72.347 33.7237L69.2533 35.3865ZM66.5985 28.0102L64.9826 28.9179C64.088 29.3845 63.5695 29.9126 63.5695 30.9073C63.5695 32.5467 64.6942 33.132 65.3296 33.132C65.5619 33.1507 65.7954 33.1185 66.0143 33.0376C66.2332 32.9567 66.4324 32.8291 66.5985 32.6633V28.0102Z" fill="#F9D168"/>
<path d="M80.3595 35.0347V34.0401C81.5698 33.828 81.5698 33.5417 81.0514 32.6637L79.609 30.2098C79.0614 31.0009 78.4551 31.9065 78.0517 32.6106C77.5897 33.4293 77.619 33.8386 78.9171 34.0443V35.039H73.4341V34.0443C75.0207 33.7219 75.5976 33.4081 76.5696 32.2289C77.2615 31.3805 78.0329 30.2968 78.9067 29.0688L76.3669 24.9417C75.5015 23.5653 75.213 23.245 73.6494 23.0329V22.0383H80.5476V23.0329C79.5965 23.245 79.3937 23.5016 79.7972 24.1761L81.1956 26.3923C81.8018 25.544 82.3495 24.6957 82.6589 24.1676C83.0331 23.4932 82.8888 23.2005 81.7349 23.0245V22.0298H87.0716V23.0245C85.4579 23.2599 85.0252 23.3468 83.957 24.7211C83.5243 25.2471 82.8596 26.0976 81.8499 27.4422L84.6196 31.8344C85.6021 33.4144 86.2919 33.8534 87.5921 34.0295V35.0241L80.3595 35.0347Z" fill="#F9D168"/>
<path d="M98.7357 35.3865C98.0851 35.4114 97.4481 35.1925 96.9464 34.7714C96.619 34.4721 96.3625 34.1016 96.1959 33.6877C95.1006 34.4194 93.6875 35.3843 93.1377 35.3843C90.6565 35.3843 89.2141 33.4226 89.2141 31.6071C89.2141 30.0568 89.906 29.3548 91.4362 28.7398C93.1377 28.1035 95.4079 27.393 96.081 26.8077V25.5225C96.081 23.9997 95.5333 23.1514 94.2916 23.1514C94.0674 23.1495 93.8459 23.2016 93.6453 23.3033C93.4448 23.4051 93.2708 23.5536 93.1377 23.7367C92.7928 24.2054 92.6758 24.7971 92.4458 25.6688C92.2368 26.4577 91.7832 26.6635 91.2041 26.6635C90.4558 26.6635 89.5026 25.9615 89.5026 25.1407C89.5026 24.6147 89.8496 24.233 90.5122 23.7664C91.8104 22.8863 93.514 22.0379 95.1278 21.688C96.2837 21.688 97.2641 21.951 98.1003 22.5363C99.3419 23.4143 99.6869 24.6444 99.6869 26.1417V31.2063C99.6869 32.6124 100.149 32.9623 100.611 32.9623C100.922 32.9507 101.227 32.8711 101.505 32.7291L101.821 33.7237L98.7357 35.3865ZM96.081 28.0102L94.4651 28.9179C93.5704 29.3845 93.052 29.9126 93.052 30.9073C93.052 32.5467 94.1766 33.132 94.8121 33.132C95.0444 33.1507 95.2778 33.1185 95.4968 33.0376C95.7157 32.9567 95.9149 32.8291 96.081 32.6633V28.0102Z" fill="#F9D168"/>
<path d="M111.92 16C115.611 16 118.325 16.7911 120.171 18.545C121.634 19.9214 122.767 21.9701 122.767 24.9266C122.767 28.2924 121.383 30.8649 119.161 32.5616C117.025 34.201 114.284 35.0196 110.996 35.0196H103.063V33.9359C105.256 33.762 105.515 33.4969 105.515 31.0685V19.9596C105.515 17.5016 105.197 17.2683 103.063 17.0922V16H111.92ZM109.524 30.8692C109.524 32.9476 110.045 33.6496 112.15 33.6496C116.044 33.6496 118.296 30.8925 118.296 25.3677C118.296 22.5852 117.545 20.1568 116.218 18.8971C115.005 17.6691 113.5 17.2598 111.573 17.2598C110.505 17.2598 110.016 17.4931 109.842 17.6691C109.583 17.9321 109.524 18.4305 109.524 19.2788V30.8692Z" fill="#F9D168"/>
<path d="M137.084 32.1671C135.323 34.8012 133.016 35.3865 131.803 35.3865C127.938 35.3865 125.741 32.4874 125.741 29.005C125.771 27.0326 126.545 25.1469 127.905 23.7368C129.203 22.4198 130.819 21.6881 132.405 21.6881C133.66 21.6802 134.867 22.1782 135.76 23.0727C136.653 23.9671 137.159 25.1847 137.167 26.4578C137.167 26.9562 137.138 27.4525 136.791 27.5416C136.243 27.6879 132.175 27.8936 129.376 28.0103C129.491 31.1131 131.195 32.6931 133.271 32.6931C134.489 32.678 135.66 32.2093 136.561 31.3761L137.084 32.1671ZM131.833 22.8864C130.679 22.8864 129.698 24.2628 129.533 26.5745L133.024 26.4875C133.427 26.4578 133.601 26.4006 133.601 25.9022C133.614 24.4388 132.949 22.8864 131.824 22.8864H131.833Z" fill="#F9D168"/>
<path d="M152.97 23.0328C151.413 23.2979 151.183 23.6181 150.577 24.9945C149.567 27.3274 148.068 30.9329 146.336 35.3569H145.123C143.681 31.7282 142.353 28.2733 140.97 24.9076C140.449 23.6478 140.161 23.2979 138.67 23.0328V22.0381H145.882V23.0328C144.584 23.2979 144.419 23.5312 144.757 24.4983C145.478 26.5173 146.517 29.3274 146.977 30.5278C147.469 29.2383 148.441 26.6933 149.114 24.6722C149.402 23.7941 149.344 23.2385 147.554 23.0328V22.0381H152.97V23.0328Z" fill="#F9D168"/>
<defs>
<linearGradient id="paint0_linear_21_128" x1="-13.0418" y1="33.5836" x2="48.1032" y2="17.7538" gradientUnits="userSpaceOnUse">
<stop stop-color="#7A5C33"/>
<stop offset="0.11" stop-color="#A3874E"/>
<stop offset="0.24" stop-color="#D0B86C"/>
<stop offset="0.34" stop-color="#ECD67F"/>
<stop offset="0.4" stop-color="#F6E186"/>
<stop offset="0.44" stop-color="#EFDA81"/>
<stop offset="0.52" stop-color="#DCC574"/>
<stop offset="0.61" stop-color="#BDA35F"/>
<stop offset="0.71" stop-color="#927541"/>
<stop offset="0.81" stop-color="#5D3C1D"/>
</linearGradient>
<linearGradient id="paint1_linear_21_128" x1="-9.26255" y1="31.5262" x2="61.6121" y2="13.5032" gradientUnits="userSpaceOnUse">
<stop stop-color="#7A5C33"/>
<stop offset="0.11" stop-color="#A3874E"/>
<stop offset="0.24" stop-color="#D0B86C"/>
<stop offset="0.34" stop-color="#ECD67F"/>
<stop offset="0.4" stop-color="#F6E186"/>
<stop offset="0.44" stop-color="#EFDA81"/>
<stop offset="0.52" stop-color="#DCC574"/>
<stop offset="0.61" stop-color="#BDA35F"/>
<stop offset="0.71" stop-color="#927541"/>
<stop offset="0.81" stop-color="#5D3C1D"/>
</linearGradient>
</defs>
</svg>
