<svg width="21" height="21" viewBox="0 0 21 21" fill="none" xmlns="http://www.w3.org/2000/svg">
<path d="M4.87417 6.9004C4.62414 5.2519 5.78832 3.76746 7.56676 3.22277C7.88253 3.12612 8.22327 3.15359 8.51949 3.29956C8.8157 3.44553 9.04506 3.69902 9.16079 4.0083L9.73107 5.5308C9.82276 5.77571 9.8392 6.04242 9.77828 6.29673C9.71736 6.55104 9.58187 6.78136 9.38917 6.95815L7.69276 8.51411C7.6091 8.59098 7.54675 8.68819 7.51179 8.79629C7.47683 8.90438 7.47045 9.01969 7.49326 9.13099L7.50835 9.19924L7.55035 9.37052C7.58776 9.5149 7.6442 9.71833 7.7236 9.96115C7.8811 10.4435 8.13245 11.0919 8.50651 11.7396C8.88057 12.3873 9.31632 12.9294 9.65495 13.3067C9.83131 13.5032 10.0157 13.6923 10.2075 13.8737L10.26 13.9223C10.3449 13.9974 10.4477 14.0493 10.5586 14.0729C10.6695 14.0965 10.7845 14.0909 10.8926 14.0568L13.0884 13.3658C13.3379 13.2873 13.6052 13.2852 13.8558 13.3597C14.1065 13.4342 14.3293 13.5819 14.4954 13.7838L15.5343 15.0451C15.9674 15.5701 15.9162 16.3419 15.4181 16.8058C14.0571 18.0744 12.1854 18.3349 10.8834 17.2875C9.28754 16.0004 7.94214 14.4305 6.91445 12.6564C5.87826 10.8834 5.18605 8.93078 4.87417 6.90105V6.9004ZM8.8681 9.21696L10.2764 7.92546C10.6618 7.57189 10.9328 7.11126 11.0546 6.60263C11.1765 6.09401 11.1436 5.56058 10.9602 5.07077L10.3893 3.54827C10.1564 2.92623 9.69499 2.41643 9.09919 2.1228C8.5034 1.82918 7.81805 1.77382 7.18285 1.96802C4.97457 2.64396 3.20138 4.62386 3.57676 7.09727C3.91341 9.29047 4.66083 11.4005 5.77979 13.3166C6.88824 15.2298 8.33931 16.9226 10.0605 18.3106C12.0129 19.8791 14.6208 19.3442 16.3133 17.7659C16.7975 17.3146 17.0914 16.6955 17.1349 16.0349C17.1785 15.3743 16.9684 14.722 16.5475 14.211L15.5087 12.9497C15.1763 12.5457 14.7307 12.2503 14.2292 12.1013C13.7277 11.9524 13.1931 11.9567 12.694 12.1136L10.8716 12.6872C10.7901 12.6033 10.7102 12.5178 10.6321 12.4306C10.2576 12.0163 9.9262 11.5648 9.64314 11.0833C9.36757 10.5974 9.14219 10.0846 8.97048 9.55296C8.93407 9.44167 8.89993 9.32964 8.8681 9.21696Z" fill="#DEBA6C"/>
</svg>
